<?xml version="1.0" encoding="UTF-8"?>
<!DOCTYPE svg PUBLIC "-//W3C//DTD SVG 1.1//EN" "http://www.w3.org/Graphics/SVG/1.1/DTD/svg11.dtd">
<!-- Creator: CorelDRAW X7 -->
<svg xmlns="http://www.w3.org/2000/svg" xml:space="preserve" width="200mm" height="200mm" version="1.1" style="shape-rendering:geometricPrecision; text-rendering:geometricPrecision; image-rendering:optimizeQuality; fill-rule:evenodd; clip-rule:evenodd"
viewBox="0 0 20000 20000"
 xmlns:xlink="http://www.w3.org/1999/xlink">
 <defs>
  <style type="text/css">
   <![CDATA[
    .fil4 {fill:none}
    .fil15 {fill:#FEFEFE}
    .fil5 {fill:#F08519}
    .fil1 {fill:#F08519}
    .fil8 {fill:#2F318B}
    .fil11 {fill:url(#id3)}
    .fil14 {fill:url(#id4)}
    .fil6 {fill:url(#id5)}
    .fil7 {fill:url(#id6)}
    .fil13 {fill:url(#id7)}
    .fil0 {fill:url(#id8)}
    .fil10 {fill:url(#id9)}
    .fil12 {fill:url(#id10)}
    .fil3 {fill:url(#id11)}
    .fil2 {fill:url(#id12)}
    .fil9 {fill:url(#id13)}
   ]]>
  </style>
   <clipPath id="id0">
    <path d="M16015 4842c639,838 957,1728 501,2443l-1891 1890 -701 702 701 701 1891 1891c456,715 138,1604 -501,2443l-2862 -2862 -701 -701 -557 557c-715,456 -1605,138 -2443,-501l1528 -1528 -2085 -2086c838,-639 1728,-957 2443,-500l1114 1114 701 -701 2862 -2862z"/>
   </clipPath>
   <clipPath id="id1">
    <path d="M10570 15158c1045,-141 1899,-545 2082,-1373l0 -2674 0 -1976 0 -2673c-183,-829 -1037,-1232 -2082,-1374l0 4047 0 1976 0 4047z"/>
   </clipPath>
   <clipPath id="id2">
    <path d="M8513 6420c18,-365 257,-645 679,-855l1403 -477 0 336 0 3522 0 97 0 103 0 104 0 103 0 104 0 103 0 103 0 104 0 103 0 104 0 103 0 103 0 104 0 103 0 104 0 103 0 103 0 104 0 103 0 104 0 103 0 103 0 104 0 103 0 104 0 103 0 103 0 73 0 238c-3,8 -7,16 -10,25 -136,1723 -1588,3091 -3344,3091l0 0c-1757,0 -3209,-1368 -3345,-3091 -3,-9 -6,-17 -10,-25l0 -238 0 -73 0 -103 0 -103 0 -104 0 -103 0 -104 0 -103 0 -103 0 -104 0 -103 0 -104 0 -103 0 -103 0 -104 0 -103 0 -104 0 -103 0 -103 0 -104 0 -103 0 -104 0 -103 0 -103 0 -104 0 -103 0 -104 0 -103 0 -97 0 -3522 0 -336 1403 477c335,180 555,463 679,855l0 5808c0,700 572,1273 1273,1273l0 0c700,0 1272,-573 1272,-1273l0 -5808z"/>
   </clipPath>
  <linearGradient id="id3" gradientUnits="userSpaceOnUse" x1="14736.7" y1="11575.1" x2="16515.7" y2="11575.1">
   <stop offset="0" style="stop-opacity:1; stop-color:#F08519"/>
   <stop offset="1" style="stop-opacity:1; stop-color:#CD3D2A"/>
  </linearGradient>
  <linearGradient id="id4" gradientUnits="userSpaceOnUse" x1="6925.47" y1="13252.9" x2="13987.7" y2="13252.9">
   <stop offset="0" style="stop-opacity:1; stop-color:#F08519"/>
   <stop offset="1" style="stop-opacity:1; stop-color:#A81B1B"/>
  </linearGradient>
  <linearGradient id="id5" gradientUnits="userSpaceOnUse" x1="10570.2" y1="8670.87" x2="12651.7" y2="8670.87">
   <stop offset="0" style="stop-opacity:1; stop-color:#F08519"/>
   <stop offset="1" style="stop-opacity:1; stop-color:#C4272C"/>
  </linearGradient>
  <linearGradient id="id6" gradientUnits="userSpaceOnUse" xlink:href="#id5" x1="10570.2" y1="4167.21" x2="12651.7" y2="4167.21">
  </linearGradient>
  <linearGradient id="id7" gradientUnits="userSpaceOnUse" x1="15120.6" y1="14328.5" x2="4660.89" y2="11163.5">
   <stop offset="0" style="stop-opacity:1; stop-color:#F08519"/>
   <stop offset="1" style="stop-opacity:1; stop-color:#D3512F"/>
  </linearGradient>
  <linearGradient id="id8" gradientUnits="userSpaceOnUse" xlink:href="#id7" x1="13139.3" y1="12262.6" x2="5115.43" y2="9834.63">
  </linearGradient>
  <linearGradient id="id9" gradientUnits="userSpaceOnUse" x1="6991.47" y1="693.65" x2="7489.54" y2="9040.18">
   <stop offset="0" style="stop-opacity:1; stop-color:#2F318B"/>
   <stop offset="1" style="stop-opacity:1; stop-color:#263D8A"/>
  </linearGradient>
  <linearGradient id="id10" gradientUnits="userSpaceOnUse" x1="4095.67" y1="12029.8" x2="3414.73" y2="12527.5">
   <stop offset="0" style="stop-opacity:1; stop-color:#2F318B"/>
   <stop offset="1" style="stop-opacity:1; stop-color:#6C66AB"/>
  </linearGradient>
  <linearGradient id="id11" gradientUnits="userSpaceOnUse" x1="12284.7" y1="6439.61" x2="13695.2" y2="7850.11">
   <stop offset="0" style="stop-opacity:1; stop-color:#F08519"/>
   <stop offset="1" style="stop-opacity:1; stop-color:#FCE148"/>
  </linearGradient>
  <linearGradient id="id12" gradientUnits="userSpaceOnUse" xlink:href="#id11" x1="11830" y1="10629.2" x2="13240.5" y2="9218.73">
  </linearGradient>
  <linearGradient id="id13" gradientUnits="userSpaceOnUse" x1="6991.47" y1="4470.36" x2="7489.54" y2="12816.9">
   <stop offset="0" style="stop-opacity:1; stop-color:#2F318B"/>
   <stop offset="1" style="stop-opacity:1; stop-color:#4D62AB"/>
  </linearGradient>
 </defs>
 <g id="Layer_x0020_1">
  <metadata id="CorelCorpID_0Corel-Layer"/>
  <path class="fil0" d="M4080 10636c5398,1852 5419,-818 9754,-998l341 1409c-2609,-438 -5448,2810 -9123,683l-972 -1094z"/>
  <path class="fil1" d="M16015 4842c639,838 957,1728 501,2443l-1891 1890 -701 702 701 701 1891 1891c456,715 138,1604 -501,2443l-2862 -2862 -701 -701 -557 557c-715,456 -1605,138 -2443,-501l1528 -1528 -2085 -2086c838,-639 1728,-957 2443,-500l1114 1114 701 -701 2862 -2862z"/>
  <g style="clip-path:url(#id0)">
   <g id="_929366016">
    <path id="1" class="fil2" d="M15738 13842c638,-838 957,-1728 500,-2443l-1890 -1890 -1397 -1397 -1891 -1891c-715,-456 -1604,-138 -2443,501l2862 2861 1397 1397 2862 2862z"/>
    <path class="fil3" d="M16192 3227c639,838 957,1728 501,2443l-1891 1890 -1397 1397 -1890 1891c-715,456 -1605,138 -2443,-501l2862 -2862 1397 -1396 2861 -2862z"/>
   </g>
  </g>
  <path class="fil4" d="M16015 4842c639,838 957,1728 501,2443l-1891 1890 -701 702 701 701 1891 1891c456,715 138,1604 -501,2443l-2862 -2862 -701 -701 -557 557c-715,456 -1605,138 -2443,-501l1528 -1528 -2085 -2086c838,-639 1728,-957 2443,-500l1114 1114 701 -701 2862 -2862z"/>
  <path class="fil5" d="M10570 15158c1045,-141 1899,-545 2082,-1373l0 -2674 0 -1976 0 -2673c-183,-829 -1037,-1232 -2082,-1374l0 4047 0 1976 0 4047z"/>
  <g style="clip-path:url(#id1)">
   <g id="_929364640">
    <path id="1" class="fil6" d="M10570 13706c1045,-141 1899,-545 2082,-1374l0 -2673 0 -1976 0 -2673c-183,-829 -1037,-1233 -2082,-1374l0 4047 0 1976 0 4047z"/>
    <path class="fil7" d="M12652 -868c-1045,142 -1899,545 -2082,1374l0 2673 0 1976 0 2674c183,828 1037,1232 2082,1373l0 -4047 0 -1976 0 -4047z"/>
   </g>
  </g>
  <path class="fil4" d="M10570 15158c1045,-141 1899,-545 2082,-1373l0 -2674 0 -1976 0 -2673c-183,-829 -1037,-1232 -2082,-1374l0 4047 0 1976 0 4047z"/>
  <path class="fil8" d="M8513 6420c18,-365 257,-645 679,-855l1403 -477 0 336 0 3522 0 97 0 103 0 104 0 103 0 104 0 103 0 103 0 104 0 103 0 104 0 103 0 103 0 104 0 103 0 104 0 103 0 103 0 104 0 103 0 104 0 103 0 103 0 104 0 103 0 104 0 103 0 103 0 73 0 238c-3,8 -7,16 -10,25 -136,1723 -1588,3091 -3344,3091l0 0c-1757,0 -3209,-1368 -3345,-3091 -3,-9 -6,-17 -10,-25l0 -238 0 -73 0 -103 0 -103 0 -104 0 -103 0 -104 0 -103 0 -103 0 -104 0 -103 0 -104 0 -103 0 -103 0 -104 0 -103 0 -104 0 -103 0 -103 0 -104 0 -103 0 -104 0 -103 0 -103 0 -104 0 -103 0 -104 0 -103 0 -97 0 -3522 0 -336 1403 477c335,180 555,463 679,855l0 5808c0,700 572,1273 1273,1273l0 0c700,0 1272,-573 1272,-1273l0 -5808z"/>
  <g style="clip-path:url(#id2)">
   <g id="_929336000">
    <path id="1" class="fil9" d="M8513 4940c18,-364 257,-644 679,-855l1403 -476 0 336 0 3522 0 97 0 103 0 103 0 104 0 103 0 104 0 103 0 103 0 104 0 103 0 104 0 103 0 103 0 104 0 103 0 104 0 103 0 103 0 104 0 103 0 104 0 103 0 103 0 104 0 103 0 104 0 103 0 72 0 238c-3,9 -7,17 -10,25 -136,1723 -1588,3092 -3344,3092l0 0c-1757,0 -3209,-1369 -3345,-3092 -3,-8 -6,-16 -10,-25l0 -238 0 -72 0 -103 0 -104 0 -103 0 -104 0 -103 0 -103 0 -104 0 -103 0 -104 0 -103 0 -103 0 -104 0 -103 0 -104 0 -103 0 -103 0 -104 0 -103 0 -104 0 -103 0 -103 0 -104 0 -103 0 -104 0 -103 0 -103 0 -97 0 -3522 0 -336 1403 476c335,180 555,464 679,855l0 5809c0,700 572,1273 1273,1273l0 0c700,0 1272,-573 1272,-1273l0 -5809z"/>
    <path class="fil10" d="M8513 1163c18,-364 257,-644 679,-855l1403 -476 0 336 0 3522 0 97 0 103 0 104 0 103 0 104 0 103 0 103 0 104 0 103 0 103 0 104 0 103 0 104 0 103 0 103 0 104 0 103 0 104 0 103 0 103 0 104 0 103 0 104 0 103 0 103 0 104 0 103 0 72 0 238c-3,9 -7,17 -10,26 -136,1723 -1588,3091 -3344,3091l0 0c-1757,0 -3209,-1368 -3345,-3091 -3,-9 -6,-17 -10,-26l0 -238 0 -72 0 -103 0 -104 0 -103 0 -103 0 -104 0 -103 0 -104 0 -103 0 -103 0 -104 0 -103 0 -104 0 -103 0 -103 0 -104 0 -103 0 -104 0 -103 0 -103 0 -104 0 -103 0 -103 0 -104 0 -103 0 -104 0 -103 0 -97 0 -3522 0 -336 1403 476c335,180 555,464 679,855l0 5809c0,700 572,1273 1273,1273l0 0c700,0 1272,-573 1272,-1273l0 -5809z"/>
   </g>
  </g>
  <path class="fil4" d="M8513 6420c18,-365 257,-645 679,-855l1403 -477 0 336 0 3522 0 97 0 103 0 104 0 103 0 104 0 103 0 103 0 104 0 103 0 104 0 103 0 103 0 104 0 103 0 104 0 103 0 103 0 104 0 103 0 104 0 103 0 103 0 104 0 103 0 104 0 103 0 103 0 73 0 238c-3,8 -7,16 -10,25 -136,1723 -1588,3091 -3344,3091l0 0c-1757,0 -3209,-1368 -3345,-3091 -3,-9 -6,-17 -10,-25l0 -238 0 -73 0 -103 0 -103 0 -104 0 -103 0 -104 0 -103 0 -103 0 -104 0 -103 0 -104 0 -103 0 -103 0 -104 0 -103 0 -104 0 -103 0 -103 0 -104 0 -103 0 -104 0 -103 0 -103 0 -104 0 -103 0 -104 0 -103 0 -97 0 -3522 0 -336 1403 477c335,180 555,463 679,855l0 5808c0,700 572,1273 1273,1273l0 0c700,0 1272,-573 1272,-1273l0 -5808z"/>
  <polygon class="fil11" points="14737,10682 16171,11047 16516,12469 "/>
  <polygon class="fil12" points="3894,11319 3269,12144 4241,13238 "/>
  <path class="fil13" d="M3269 12144c5305,2510 8503,-468 12902,-1097l341 1408c-2578,365 -8564,3748 -12271,783l-972 -1094z"/>
  <path class="fil14" d="M11748 12523c107,-249 353,-423 640,-423l1600 0 0 688 -1600 0c-5,0 -10,6 -10,10l0 12 1260 0 0 689 -1260 0 0 200c0,5 5,10 10,10l1600 0 0 689 -1600 0c-287,0 -533,-175 -640,-423l0 597 -622 -478 -987 -759 0 1063 -2423 0c-122,0 -241,-28 -350,-82 -156,-79 -284,-207 -358,-362 -55,-109 -83,-228 -83,-350l0 -1504 689 0 0 1523c9,41 42,74 83,83l1123 3 0 -1609 630 0 0 -166 623 477 987 760 0 -1073 688 6 0 419z"/>
  <path class="fil15" d="M7683 13876c-123,-17 -221,-115 -238,-238l0 -1369 -350 0 0 1335c0,98 22,190 64,274 59,124 160,224 283,286 84,42 176,64 274,64l994 0 0 -350 -1027 -2zm1657 352l0 -1959 -350 0 0 1959 350 0zm1889 -1959l0 1247 -1259 -970 -350 -269 0 1951 350 0 0 -1238 1259 970 350 268 0 -1956 -350 -3zm1159 350l1430 0 0 -350 -1430 0c-291,0 -526,238 -526,529l0 901c0,291 235,529 526,529l1430 0 0 -350 -1430 0c-98,0 -179,-81 -179,-179l0 -369 1259 0 0 -350 -1259 0 0 -182c0,-98 81,-179 179,-179z"/>
 </g>
</svg>
